<svg width="142" height="43" viewBox="0 0 142 43" fill="none" xmlns="http://www.w3.org/2000/svg">
<g id="Group 315">
<g id="Group">
<path id="Vector" d="M24.111 36.4298C14.0511 36.4298 5.89897 28.272 5.89897 18.2177C5.89897 8.63899 13.2982 0.786906 22.6901 0.056612C22.1862 0.0169836 21.6767 0 21.1616 0C9.47684 0 0 9.47684 0 21.1616C0 32.8463 9.47684 42.3231 21.1616 42.3231C32.8463 42.3231 42.3231 32.8463 42.3231 21.1616C42.3231 20.6464 42.3061 20.1425 42.2665 19.6387C41.5475 29.0306 33.6954 36.4298 24.111 36.4298Z" fill="url(#paint0_linear_1_38)"/>
<path id="Vector_2" d="M21.7618 5.78595C29.9253 5.78595 36.5432 12.4039 36.5432 20.5673C36.5432 28.3402 30.5424 34.7147 22.9167 35.3034C23.3243 35.3317 23.7376 35.3487 24.1565 35.3487C33.639 35.3487 41.3326 27.6608 41.3326 18.1726C41.3326 8.68448 33.639 0.996582 24.1565 0.996582C14.674 0.996582 6.98047 8.68448 6.98047 18.1726C6.98047 18.5916 6.99745 18.9992 7.02576 19.4125C7.61452 11.7868 13.989 5.78595 21.7618 5.78595Z" fill="url(#paint1_linear_1_38)"/>
<path id="Vector_3" d="M21.3141 29.7214C26.4042 29.7214 30.5305 25.5951 30.5305 20.505C30.5305 15.4149 26.4042 11.2886 21.3141 11.2886C16.224 11.2886 12.0977 15.4149 12.0977 20.505C12.0977 25.5951 16.224 29.7214 21.3141 29.7214Z" fill="url(#paint2_linear_1_38)"/>
</g>
<path id="Vector_4" d="M71.9883 35.4506V25.1642C71.9883 23.0922 72.294 21.3485 72.9054 19.9389C73.5168 18.5293 74.3547 17.4027 75.419 16.5479C76.4267 15.7496 77.6099 15.1665 78.9685 14.7929C80.3216 14.4192 81.7199 14.2324 83.1522 14.2324C83.2597 14.2324 83.3899 14.2324 83.5485 14.2324C83.707 14.2324 83.8428 14.2324 83.9447 14.2324V19.8936H82.1105C80.5707 19.8936 79.4271 20.2673 78.6798 21.0089C77.9382 21.7505 77.5646 22.9224 77.5646 24.5188V35.4449H71.9883V35.4506Z" fill="url(#paint3_linear_1_38)"/>
<path id="Vector_5" d="M99.2595 28.9119H103.245C102.662 31.1424 101.541 32.8464 99.8935 34.0126C98.2461 35.2354 96.1741 35.8468 93.6719 35.8468C90.6431 35.8468 88.2767 34.8618 86.5727 32.8973C84.8687 30.9839 84.0195 28.2438 84.0195 24.6829C84.0195 21.2806 84.8461 18.6255 86.4935 16.7063C88.1918 14.7419 90.5582 13.7568 93.5926 13.7568C96.7799 13.7568 99.2538 14.7136 101.009 16.6271C102.707 18.5915 103.562 21.3315 103.562 24.8415C103.562 25.0566 103.562 25.2377 103.562 25.4019C103.562 25.5604 103.562 25.668 103.562 25.7189C103.562 25.985 103.534 26.1718 103.483 26.2794H89.6864C89.7373 27.9268 90.1393 29.1496 90.8809 29.9479C91.5716 30.797 92.6076 31.2216 93.9889 31.2216C94.8947 31.2216 95.6646 31.0348 96.2987 30.6612C96.4572 30.6102 96.6044 30.514 96.7346 30.3838C96.8648 30.2536 97.012 30.1064 97.1705 29.9479C97.2214 29.7893 97.4252 29.5742 97.7706 29.3081C98.1272 29.0421 98.6198 28.9119 99.2595 28.9119ZM89.692 22.6902H97.8272C97.7196 21.2523 97.346 20.1936 96.7119 19.503C96.0213 18.7613 95.0362 18.3877 93.7624 18.3877C92.5906 18.3877 91.6338 18.7613 90.8922 19.503C90.1449 20.2446 89.743 21.3089 89.692 22.6902Z" fill="url(#paint4_linear_1_38)"/>
<path id="Vector_6" d="M110.023 14.2375V22.0499L116.8 14.2375H123.497L115.922 22.3726L123.576 35.45H116.879L112.973 28.2716C112.175 26.8336 111.484 26.2279 110.901 26.4374C110.318 26.6525 110.023 26.9695 110.023 27.3941V30.3436V35.4443H104.441V8.02148H107.312C108.053 8.02148 108.693 8.28756 109.225 8.81971C109.757 9.35187 110.023 9.96327 110.023 10.6539V14.2375Z" fill="url(#paint5_linear_1_38)"/>
<path id="Vector_7" d="M138.093 34.5733C136.977 35.1564 135.794 35.5187 134.543 35.6489C133.292 35.7791 132.188 35.847 131.231 35.847C129.318 35.847 127.642 35.3262 126.21 34.2902C124.772 33.2542 124.059 31.5389 124.059 29.1498C124.059 26.9193 124.71 25.3229 126.012 24.3661C127.314 23.4094 128.973 22.7697 130.994 22.4526C131.26 22.4526 131.577 22.413 131.95 22.3337C132.324 22.2545 132.749 22.1866 133.224 22.1356C135.562 21.8186 136.734 21.1279 136.734 20.0636C136.734 19.2654 136.321 18.7502 135.5 18.5068C134.673 18.269 133.92 18.1501 133.23 18.1501C132.488 18.1501 131.82 18.2577 131.237 18.4671C130.654 18.6823 130.229 19.0786 129.963 19.6617H124.619C124.834 18.0143 125.576 16.6556 126.85 15.5969C128.288 14.3741 130.331 13.7627 132.992 13.7627C135.97 13.7627 138.2 14.2665 139.689 15.2799C141.229 16.3442 141.999 17.8331 141.999 19.7466V27.0042C141.999 29.1328 141.614 30.7916 140.844 31.9861C140.068 33.1806 139.151 34.0411 138.093 34.5733ZM136.813 24.7681C136.072 25.1417 135.03 25.487 133.705 25.8041L131.871 26.2003C130.914 26.4664 130.224 26.8118 129.799 27.2363C129.425 27.8194 129.239 28.4082 129.239 28.9913C129.239 29.7895 129.476 30.4293 129.958 30.9048C130.439 31.3294 131.129 31.5445 132.03 31.5445C133.518 31.5445 134.685 31.1199 135.539 30.2707C136.389 29.4216 136.813 28.2497 136.813 26.7608V24.7681V24.7681Z" fill="url(#paint6_linear_1_38)"/>
<path id="Vector_8" d="M59.4018 12.8682C53.0783 12.8682 47.9492 17.9972 47.9492 24.3208C47.9492 30.6443 53.0783 35.7734 59.4018 35.7734C65.7254 35.7734 70.8544 30.6443 70.8544 24.3208C70.8544 17.9972 65.7254 12.8682 59.4018 12.8682ZM59.4018 31.0972C55.6598 31.0972 52.6254 28.0628 52.6254 24.3208C52.6254 20.5787 55.6598 17.5443 59.4018 17.5443C63.1439 17.5443 66.1783 20.5787 66.1783 24.3208C66.1783 28.0628 63.1439 31.0972 59.4018 31.0972Z" fill="url(#paint7_linear_1_38)"/>
</g>
<defs>
<linearGradient id="paint0_linear_1_38" x1="0" y1="21.1637" x2="42.3274" y2="21.1637" gradientUnits="userSpaceOnUse">
<stop stop-color="#FF5A60"/>
<stop offset="1" stop-color="#F78F00"/>
</linearGradient>
<linearGradient id="paint1_linear_1_38" x1="6.98251" y1="18.1715" x2="41.3301" y2="18.1715" gradientUnits="userSpaceOnUse">
<stop stop-color="#0D47A1"/>
<stop offset="1" stop-color="#0EE8E7"/>
</linearGradient>
<linearGradient id="paint2_linear_1_38" x1="12.0997" y1="20.5036" x2="30.5276" y2="20.5036" gradientUnits="userSpaceOnUse">
<stop stop-color="#0D47A1"/>
<stop offset="1" stop-color="#0EE8E7"/>
</linearGradient>
<linearGradient id="paint3_linear_1_38" x1="77.9683" y1="33.7641" x2="77.9683" y2="4.27653" gradientUnits="userSpaceOnUse">
<stop stop-color="#FF5A60"/>
<stop offset="1" stop-color="#F78F00"/>
</linearGradient>
<linearGradient id="paint4_linear_1_38" x1="93.7978" y1="33.764" x2="93.7978" y2="4.27648" gradientUnits="userSpaceOnUse">
<stop stop-color="#FF5A60"/>
<stop offset="1" stop-color="#F78F00"/>
</linearGradient>
<linearGradient id="paint5_linear_1_38" x1="114.008" y1="33.7635" x2="114.008" y2="4.27592" gradientUnits="userSpaceOnUse">
<stop stop-color="#FF5A60"/>
<stop offset="1" stop-color="#F78F00"/>
</linearGradient>
<linearGradient id="paint6_linear_1_38" x1="133.027" y1="33.7642" x2="133.027" y2="4.27668" gradientUnits="userSpaceOnUse">
<stop stop-color="#FF5A60"/>
<stop offset="1" stop-color="#F78F00"/>
</linearGradient>
<linearGradient id="paint7_linear_1_38" x1="59.4023" y1="33.9303" x2="59.4023" y2="10.5295" gradientUnits="userSpaceOnUse">
<stop stop-color="#FF5A60"/>
<stop offset="1" stop-color="#F78F00"/>
</linearGradient>
</defs>
</svg>
