<svg width="18" height="23" viewBox="0 0 18 23" fill="none" xmlns="http://www.w3.org/2000/svg">
<g id="Buyer_Outline 1" clip-path="url(#clip0_1_83)">
<g id="DTAv3l.tif">
<path id="Vector" d="M8.52329 0H9.49201C9.5454 0.0188352 9.60016 0.0335556 9.65581 0.0440324C11.3365 0.264194 12.8332 1.5702 13.2722 3.21436C13.3708 3.58468 13.4197 3.96776 13.495 4.36361H13.72C14.4663 4.36361 15.2131 4.36361 15.9595 4.36361C16.4663 4.36361 16.7036 4.60271 16.7384 5.10732C16.778 5.67666 16.834 6.24467 16.8846 6.81313C16.9815 7.90602 17.0789 8.99905 17.177 10.0922C17.2562 10.9814 17.3351 11.8704 17.4134 12.7593C17.509 13.8301 17.6072 14.9014 17.7018 15.9736C17.7961 17.0379 17.8727 18.1035 17.9854 19.1655C18.0805 20.0585 17.8093 20.8141 17.1964 21.446C16.4918 22.1712 15.6143 22.497 14.6103 22.497C10.9283 22.497 7.24635 22.497 3.56437 22.497C3.30017 22.497 3.03598 22.497 2.77839 22.4486C1.57939 22.2284 0.668355 21.6203 0.187081 20.4623C0.107383 20.2703 0.0642306 20.0634 0.00390625 19.863V19.2466C0.0213636 19.1993 0.0344809 19.1505 0.0430954 19.1008C0.105621 18.3941 0.165065 17.6869 0.22715 16.9802C0.305528 16.0837 0.384786 15.1872 0.464925 14.2907C0.560916 13.2122 0.657054 12.1337 0.753338 11.0552C0.833183 10.1593 0.912295 9.26295 0.990672 8.36615C1.0871 7.28032 1.19058 6.19492 1.2782 5.10776C1.31915 4.60183 1.54856 4.36581 2.05714 4.36449C2.81141 4.36449 3.56525 4.36449 4.31908 4.36449C4.39702 4.36449 4.47496 4.35701 4.55642 4.35304C4.56343 4.319 4.56858 4.28461 4.57183 4.25001C4.63964 2.42222 5.85581 0.812398 7.59685 0.229849C7.89451 0.131217 8.21154 0.076176 8.52329 0ZM12.2088 5.64099H5.79857C5.79857 6.24996 5.79857 6.84263 5.79857 7.43531C5.79857 7.84877 5.56123 8.12045 5.19973 8.12926C4.81929 8.13807 4.56434 7.87651 4.55906 7.45424C4.55245 6.92585 4.55906 6.39747 4.55906 5.87216C4.55906 5.79466 4.55906 5.71672 4.55906 5.63174H2.48469C2.46972 5.80171 2.45519 5.96727 2.44066 6.13283C2.34467 7.2037 2.24838 8.27515 2.15181 9.3472C2.05714 10.4185 1.96687 11.4903 1.87176 12.5616C1.77665 13.6329 1.67714 14.7037 1.58115 15.7759C1.48119 16.8908 1.40105 18.0079 1.27776 19.1202C1.1897 19.9251 1.4693 20.5195 2.15445 20.9317C2.56835 21.1805 3.02761 21.2566 3.50096 21.2571C7.16856 21.2588 10.8362 21.2588 14.5038 21.2571C14.9309 21.2571 15.3452 21.1884 15.7367 20.9986C16.3655 20.6935 16.7895 20.0739 16.7441 19.4548C16.6759 18.5134 16.5874 17.5733 16.5042 16.6332C16.4091 15.5549 16.3091 14.4756 16.2131 13.3982C16.1184 12.3339 16.0273 11.2697 15.9331 10.2058C15.8362 9.11265 15.7386 8.01947 15.6402 6.9263C15.6015 6.49742 15.5622 6.0684 15.5222 5.63923H13.447C13.447 5.73082 13.447 5.81007 13.447 5.88889C13.447 6.44546 13.4527 7.00247 13.4391 7.5586C13.4303 7.89633 13.1515 8.13631 12.8129 8.13102C12.6575 8.13146 12.5081 8.0715 12.3961 7.96378C12.2841 7.85607 12.2184 7.70904 12.2128 7.55376C12.2013 7.2015 12.2079 6.84924 12.207 6.49918C12.2066 6.21341 12.207 5.92984 12.207 5.64099H12.2088ZM5.81618 4.34468H12.193C12.1699 3.51288 11.8221 2.72318 11.2239 2.14475C10.6257 1.56631 9.82478 1.24516 8.99268 1.25008C7.26749 1.25668 5.91922 2.57369 5.81618 4.34468Z" fill="#ED6620"/>
</g>
<path id="Vector_2" d="M8.04833 14.5634C7.67625 14.1895 7.32003 13.8329 6.96557 13.4745C6.80265 13.3102 6.61331 13.2103 6.37774 13.2446C6.25649 13.2567 6.14137 13.3038 6.04645 13.3802C5.95152 13.4566 5.88089 13.5589 5.84318 13.6748C5.74587 13.9434 5.82117 14.1799 6.01667 14.3771C6.50044 14.8659 6.98626 15.3526 7.47414 15.8372C7.89377 16.2564 8.21213 16.2542 8.63704 15.8297C9.69382 14.7747 10.749 13.7194 11.8025 12.6638C11.8606 12.6083 11.9155 12.5495 11.9668 12.4877C12.0677 12.3651 12.1197 12.2096 12.1128 12.051C12.1059 11.8924 12.0406 11.7419 11.9293 11.6286C11.8212 11.512 11.6731 11.4403 11.5146 11.4278C11.356 11.4152 11.1985 11.4627 11.0734 11.5608C10.9763 11.6384 10.8849 11.7229 10.7999 11.8136C9.88932 12.7193 8.97785 13.633 8.04833 14.5634Z" fill="#ED6620"/>
</g>
<defs>
<clipPath id="clip0_1_83">
<rect width="18" height="22.5001" fill="white"/>
</clipPath>
</defs>
</svg>
